# xmcd
#
# Track frame offsets:
#	150
#	21340
#	35219
#	51525
#	68774
#	89254
#	110281
#	124047
#	142949
#	162113
#	177820
#	191757
#	206645
#	226861
#	243410
#
# Disc length: 3461 seconds
#
# Revision: 1
# Processed by: cddbd v1.5.2PL0 Copyright (c) Steve Scherf et al.
# Submitted via: audiograbber 1.83.01
#
DISCID=cf0d830f
DTITLE=Various Artist - CBCDG-60116
DYEAR=1900
DGENRE=Karaoke
TTITLE0=Joe Diffie - John Deere Green
TTITLE1=Alan Jackson - Tequila Sunrise
TTITLE2=Pan Tillis - Let That Pony Run
TTITLE3=John  Michael Montgomery - Beer and Bones
TTITLE4=Aaron Tippin - The Call Of The Wild
TTITLE5=Suzy Bogguss - Take It To The Limit
TTITLE6=Billy Dean - I'm Not Built That Way
TTITLE7=Vince Gill - I Can't Tell You Why
TTITLE8=Tanya Tucker - Already Gone
TTITLE9=Diamond Rio - Oh Me, Oh My, Sweet Baby
TTITLE10=Mark Collie - Shame Shame Shame Shame 
TTITLE11=Reba McEntire - It's Your Call
TTITLE12=Brooks and Dunn - Best Of My Love
TTITLE13=Doug Supernaw - Reno
TTITLE14=Wynonna - Only Love
EXTD=
EXTT0=
EXTT1=
EXTT2=
EXTT3=
EXTT4=
EXTT5=
EXTT6=
EXTT7=
EXTT8=
EXTT9=
EXTT10=
EXTT11=
EXTT12=
EXTT13=
EXTT14=
PLAYORDER=
